HIERARCHY
ROOT joint_Root
{
	OFFSET 0.0 0.0 0.0
	CHANNELS 6 Xposition Yposition Zposition Zrotation Xrotation Yrotation 
	JOINT Hips
	{
		OFFSET -17.1583 93.1646 452.98
		CHANNELS 6 Xposition Yposition Zposition Zrotation Xrotation Yrotation 
		JOINT Spine
		{
			OFFSET 15.7357 0.0 0.0
			CHANNELS 6 Xposition Yposition Zposition Zrotation Xrotation Yrotation 
			JOINT Chest
			{
				OFFSET 8.98455 -0.406207 0.0
				CHANNELS 6 Xposition Yposition Zposition Zrotation Xrotation Yrotation 
				JOINT Neck
				{
					OFFSET 16.3773 0.0 0.0
					CHANNELS 6 Xposition Yposition Zposition Zrotation Xrotation Yrotation 
					JOINT Head
					{
						OFFSET 6.45672 0.0 0.0
						CHANNELS 6 Xposition Yposition Zposition Zrotation Xrotation Yrotation 
						End Site
						{
							OFFSET 0.0 0.0 0.0
						}
					}
				}
				JOINT Shoulder_L
				{
					OFFSET 12.9942 -0.242716 4.98039
					CHANNELS 6 Xposition Yposition Zposition Zrotation Xrotation Yrotation 
					JOINT UpperArm_L
					{
						OFFSET 5.34809 0.0 0.0
						CHANNELS 6 Xposition Yposition Zposition Zrotation Xrotation Yrotation 
						JOINT LowerArm_L
						{
							OFFSET 24.3286 1.87007e-05 0.0
							CHANNELS 6 Xposition Yposition Zposition Zrotation Xrotation Yrotation 
							JOINT Hand_L
							{
								OFFSET 22.2916 0.0 0.0
								CHANNELS 6 Xposition Yposition Zposition Zrotation Xrotation Yrotation 
								End Site
								{
									OFFSET 0.0 0.0 0.0
								}
							}
						}
					}
				}
				JOINT Shoulder_R
				{
					OFFSET 12.9945 -0.242716 -4.98039
					CHANNELS 6 Xposition Yposition Zposition Zrotation Xrotation Yrotation 
					JOINT UpperArm_R
					{
						OFFSET -5.34813 0.0 0.0
						CHANNELS 6 Xposition Yposition Zposition Zrotation Xrotation Yrotation 
						JOINT LowerArm_R
						{
							OFFSET -24.3289 0.000322201 0.0
							CHANNELS 6 Xposition Yposition Zposition Zrotation Xrotation Yrotation 
							JOINT Hand_R
							{
								OFFSET -22.2915 -0.000108084 0.0
								CHANNELS 6 Xposition Yposition Zposition Zrotation Xrotation Yrotation 
								End Site
								{
									OFFSET 0.0 0.0 0.0
								}
							}
						}
					}
				}
			}
		}
		JOINT UpperLeg_L
		{
			OFFSET -2.19248 -6.46944 0.0
			CHANNELS 6 Xposition Yposition Zposition Zrotation Xrotation Yrotation 
			JOINT LowerLeg_L
			{
				OFFSET 39.0811 0.0 -1.23785e-05
				CHANNELS 6 Xposition Yposition Zposition Zrotation Xrotation Yrotation 
				JOINT Foot_L
				{
					OFFSET 40.9854 0.0 -1.26872e-05
					CHANNELS 6 Xposition Yposition Zposition Zrotation Xrotation Yrotation 
					JOINT Toes_L
					{
						OFFSET 11.7543 0.0 0.0
						CHANNELS 6 Xposition Yposition Zposition Zrotation Xrotation Yrotation 
						End Site
						{
							OFFSET 0.0 0.0 0.0
						}
					}
				}
			}
		}
		JOINT UpperLeg_R
		{
			OFFSET -2.19251 6.46944 0.0
			CHANNELS 6 Xposition Yposition Zposition Zrotation Xrotation Yrotation 
			JOINT LowerLeg_R
			{
				OFFSET -39.0811 -0.00228153 -0.0401928
				CHANNELS 6 Xposition Yposition Zposition Zrotation Xrotation Yrotation 
				JOINT Foot_R
				{
					OFFSET -40.9854 0.0 0.0
					CHANNELS 6 Xposition Yposition Zposition Zrotation Xrotation Yrotation 
					JOINT Toes_R
					{
						OFFSET -11.7543 0.0 0.0
						CHANNELS 6 Xposition Yposition Zposition Zrotation Xrotation Yrotation 
						End Site
						{
							OFFSET 0.0 0.0 0.0
						}
					}
				}
			}
		}
	}
}
MOTION
Frames:	7
Frame Time:	0.0333333
0.000000 0.000000 0.000000 0.000000 0.000000 -0.000000 -2.188690 93.052100 -3.580490 87.575100 -1.638920 4.952040 15.735700 0.000005 -0.000001 93.774500 84.748600 -92.469700 8.984550 -0.406207 -0.000000 2.708170 0.633204 2.591860 16.377300 -0.000001 -0.000001 -0.565581 2.192280 -1.772860 6.456720 -0.000001 -0.000000 3.096580 2.137980 0.661090 12.994200 -0.242716 4.980390 -92.049500 6.395320 -72.189300 5.348090 -0.000007 -0.000001 -70.991000 19.696100 -6.906550 24.328600 0.000019 0.000005 5.731830 28.646800 -11.825200 22.291600 -0.000001 0.000005 -8.718760 5.114960 4.771220 12.994500 -0.242716 -4.980390 89.264600 2.620310 -74.316700 -5.348130 -0.000001 -0.000004 -71.226300 20.443900 -8.836870 -24.328900 0.000322 -0.000009 -0.741040 -7.540140 -5.628760 -22.291500 -0.000108 -0.000004 -12.941800 4.909360 9.192050 -2.192480 -6.469440 -0.000000 -170.898000 -7.199920 -0.260052 39.081100 -0.000007 -0.000012 -0.020353 0.064181 17.594400 40.985400 -0.000006 -0.000013 -2.195220 15.230400 -67.317700 11.754300 -0.000000 0.000003 -0.000330 0.172999 -9.559750 -2.192510 6.469440 -0.000001 178.810000 5.301700 -179.149000 -39.081100 -0.002282 -0.040193 0.064129 -0.215021 15.789100 -40.985400 0.000008 0.000006 -2.840120 4.358180 -68.163000 -11.754300 -0.000006 -0.000006 -0.009384 0.266643 -5.741610
0.000000 0.000000 0.000000 0.000000 0.000000 -0.000000 -2.165420 93.068000 -3.258150 87.609100 -1.573240 4.412210 15.735700 0.000005 -0.000001 94.124700 85.153100 -92.841000 8.984550 -0.406207 -0.000000 1.896960 0.631098 2.554550 16.377300 -0.000001 -0.000001 -0.728957 2.108420 -1.784000 6.456720 -0.000001 -0.000000 2.918170 2.132660 0.577372 12.994200 -0.242716 4.980390 -91.985500 5.971670 -71.570300 5.348090 -0.000007 -0.000001 -69.177000 11.501300 -8.134160 24.328600 0.000019 0.000005 3.548090 28.142700 -7.488010 22.291600 -0.000001 0.000005 -10.268900 5.074650 5.694410 12.994500 -0.242716 -4.980390 89.398800 2.055670 -73.692400 -5.348130 -0.000001 -0.000004 -70.398700 14.620800 -8.667870 -24.328900 0.000322 -0.000009 -0.492792 -10.044900 -2.822610 -22.291500 -0.000108 -0.000004 -14.316900 4.893380 9.511490 -2.192480 -6.469440 -0.000000 -171.014000 -7.118980 -0.429642 39.081100 -0.000007 -0.000012 -0.017391 0.055847 17.296400 40.985400 -0.000006 -0.000013 -2.200490 15.125700 -67.499600 11.754300 -0.000000 0.000003 -0.000350 0.173326 -9.546490 -2.192510 6.469440 -0.000001 178.745000 5.474440 -179.308000 -39.081100 -0.002282 -0.040193 0.061296 -0.209367 15.475600 -40.985400 0.000008 0.000006 -2.953510 4.496390 -68.247100 -11.754300 -0.000006 -0.000006 -0.009783 0.269680 -5.617460
0.000000 0.000000 0.000000 0.000000 0.000000 -0.000000 -2.164680 93.083800 -2.866250 87.619400 -1.532420 3.693270 15.735700 0.000005 -0.000001 94.491900 85.649600 -93.219900 8.984550 -0.406207 -0.000000 0.902622 0.604998 2.537220 16.377300 -0.000001 -0.000001 -1.164320 2.146890 -1.958100 6.456720 -0.000001 -0.000000 2.795860 2.157810 0.429857 12.994200 -0.242716 4.980390 -91.926900 5.597810 -70.970800 5.348090 -0.000007 -0.000001 -66.162700 2.208980 -9.233340 24.328600 0.000019 0.000005 2.153840 28.410400 -4.520040 22.291600 -0.000001 0.000005 -11.889200 5.014380 7.016210 12.994500 -0.242716 -4.980390 89.639400 1.193420 -73.183400 -5.348130 -0.000001 -0.000004 -68.999900 6.862000 -8.498630 -24.328900 0.000322 -0.000009 -0.000967 -11.467300 -0.000066 -22.291500 -0.000108 -0.000004 -15.169600 4.849180 10.377200 -2.192480 -6.469440 -0.000000 -171.083000 -7.237550 -0.700455 39.081100 -0.000007 -0.000012 -0.016060 0.052706 16.946100 40.985400 -0.000006 -0.000013 -2.194860 15.190400 -67.682400 11.754300 -0.000000 0.000003 -0.000477 0.175294 -9.466540 -2.192510 6.469440 -0.000001 178.748000 5.517470 -179.551000 -39.081100 -0.002282 -0.040193 0.057198 -0.200298 15.052900 -40.985400 0.000008 0.000006 -3.108450 4.534130 -68.218600 -11.754300 -0.000006 -0.000006 -0.009489 0.267448 -5.708730
0.000000 0.000000 0.000000 0.000000 0.000000 -0.000000 -2.161080 93.090300 -2.387200 87.606600 -1.480170 3.095990 15.735700 0.000005 -0.000001 94.906800 86.095200 -93.664200 8.984550 -0.406207 -0.000000 0.009846 0.583744 2.483390 16.377300 -0.000001 -0.000001 -1.916150 2.179150 -2.144240 6.456720 -0.000001 -0.000000 2.529580 2.265510 0.162228 12.994200 -0.242716 4.980390 -91.936000 5.452670 -70.418400 5.348090 -0.000007 -0.000001 -61.463200 -5.570420 -10.284300 24.328600 0.000019 0.000005 1.709080 29.324900 -3.486410 22.291600 -0.000001 0.000005 -13.300700 4.966040 8.034270 12.994500 -0.242716 -4.980390 89.928200 0.233359 -72.900100 -5.348130 -0.000001 -0.000004 -66.671100 -1.713860 -7.934270 -24.328900 0.000322 -0.000009 -0.001039 -11.774700 -0.000067 -22.291500 -0.000108 -0.000004 -14.725200 4.832620 10.696100 -2.192480 -6.469440 -0.000000 -171.099000 -7.395210 -0.790689 39.081100 -0.000007 -0.000012 -0.016551 0.055521 16.598900 40.985400 -0.000006 -0.000013 -2.168470 15.318600 -67.879400 11.754300 -0.000000 0.000003 -0.000608 0.177297 -9.385140 -2.192510 6.469440 -0.000001 178.765000 5.600990 -179.580000 -39.081100 -0.002282 -0.040193 0.053040 -0.191235 14.570700 -40.985400 0.000008 0.000006 -3.172870 4.538650 -68.250600 -11.754300 -0.000006 -0.000006 -0.010101 0.272057 -5.520240
0.000000 0.000000 0.000000 0.000000 0.000000 -0.000000 -2.158590 93.086200 -1.780950 87.587200 -1.292370 2.599380 15.735700 0.000005 -0.000001 96.430600 86.496200 -95.271300 8.984550 -0.406207 -0.000000 -0.808528 0.697959 2.322470 16.377300 -0.000001 -0.000001 -3.002980 2.183660 -2.282120 6.456720 -0.000001 -0.000000 2.228140 2.238490 0.127775 12.994200 -0.242716 4.980390 -91.813100 4.908440 -69.696700 5.348090 -0.000007 -0.000001 -56.501400 -11.883800 -12.019600 24.328600 0.000019 0.000005 1.775190 30.658700 -3.477970 22.291600 -0.000001 0.000005 -11.627300 4.895500 9.446840 12.994500 -0.242716 -4.980390 90.272100 -0.869840 -72.629500 -5.348130 -0.000001 -0.000004 -63.381400 -11.255700 -6.540050 -24.328900 0.000322 -0.000009 -0.000998 -12.031700 -0.000069 -22.291500 -0.000108 -0.000004 -13.662400 4.833520 10.679400 -2.192480 -6.469440 -0.000000 -171.094000 -7.473560 -0.729269 39.081100 -0.000007 -0.000012 -0.020094 0.068968 16.243100 40.985400 -0.000006 -0.000013 -2.136160 15.425800 -68.099000 11.754300 -0.000000 0.000003 -0.000794 0.180063 -9.272780 -2.192510 6.469440 -0.000001 178.742000 5.931040 -179.360000 -39.081100 -0.002282 -0.040193 0.047309 -0.176374 14.000500 -40.985400 0.000008 0.000006 -3.278650 4.732600 -68.247200 -11.754300 -0.000006 -0.000006 -0.010342 0.273845 -5.447080
0.000000 0.000000 0.000000 0.000000 0.000000 -0.000000 -2.190490 93.112800 -1.170500 87.656900 -0.738182 1.834280 15.735700 0.000005 -0.000001 98.592200 87.019100 -97.584400 8.984550 -0.406207 -0.000000 -1.877450 0.805706 2.028470 16.377300 -0.000001 -0.000001 -4.312070 2.095810 -2.335920 6.456720 -0.000001 -0.000000 1.957100 2.073200 0.034765 12.994200 -0.242716 4.980390 -91.504100 3.870540 -68.743300 5.348090 -0.000007 -0.000001 -51.954400 -17.393200 -14.543700 24.328600 0.000019 0.000005 2.124150 30.784600 -4.145200 22.291600 -0.000001 0.000005 -7.953890 4.795260 11.392100 12.994500 -0.242716 -4.980390 90.594000 -1.841740 -72.123500 -5.348130 -0.000001 -0.000004 -58.472300 -21.697800 -4.598280 -24.328900 0.000322 -0.000009 -0.001030 -12.243600 -0.000070 -22.291500 -0.000108 -0.000004 -10.796800 4.824360 10.851700 -2.192480 -6.469440 -0.000000 -171.214000 -7.187080 -0.773526 39.081100 -0.000007 -0.000012 -0.024401 0.088591 15.399200 40.985400 -0.000006 -0.000013 -2.190790 15.532700 -68.018100 11.754300 -0.000000 0.000003 -0.000907 0.181698 -9.206340 -2.192510 6.469440 -0.000001 178.686000 6.483480 -179.211000 -39.081100 -0.002282 -0.040193 0.038934 -0.153013 13.097700 -40.985400 0.000008 0.000006 -3.442590 4.699660 -68.126800 -11.754300 -0.000006 -0.000006 -0.010543 0.275322 -5.386670
0.000000 0.000000 0.000000 0.000000 0.000000 -0.000000 -2.211660 93.133900 -0.535675 87.774500 0.041103 0.950062 15.735700 0.000005 -0.000001 100.295000 87.626000 -99.440700 8.984550 -0.406207 -0.000000 -3.099740 0.767198 1.730060 16.377300 -0.000001 -0.000001 -5.525150 1.952580 -2.416170 6.456720 -0.000001 -0.000000 1.554800 1.962090 -0.182816 12.994200 -0.242716 4.980390 -91.026500 2.542910 -68.006300 5.348090 -0.000007 -0.000001 -47.544600 -22.801400 -17.452400 24.328600 0.000019 0.000005 2.194760 30.183500 -4.358990 22.291600 -0.000001 0.000005 -4.383930 4.743790 12.356800 12.994500 -0.242716 -4.980390 90.987600 -2.912820 -71.263600 -5.348130 -0.000001 -0.000004 -52.172300 -29.871200 -2.938720 -24.328900 0.000322 -0.000009 -0.000997 -14.910000 -0.000084 -22.291500 -0.000108 -0.000004 -6.553590 4.773870 11.802800 -2.192480 -6.469440 -0.000000 -171.420000 -6.520960 -0.954591 39.081100 -0.000007 -0.000012 -0.024287 0.093694 14.532000 40.985400 -0.000006 -0.000013 -2.267600 15.473500 -68.053700 11.754300 -0.000000 0.000003 -0.001141 0.185018 -9.071410 -2.192510 6.469440 -0.000001 178.590000 7.063530 -179.149000 -39.081100 -0.002282 -0.040193 0.030045 -0.123650 12.189300 -40.985400 0.000008 0.000006 -3.819830 4.529990 -67.998000 -11.754300 -0.000006 -0.000006 -0.011102 0.279361 -5.221370
